# xmcd CD database file
#
# Track frame offsets:
#	150
#	21828
#	42523
#	80323
#	97724
#	116770
#	153072
#	177296
#	194169
#	217495
#	240151
#	257131
#
# Disc length: 3684 seconds
#
# Revision: 0
# Processed by: cddbd v1.5.2PL0 Copyright (c) Steve Scherf et al.
# Submitted via: CDex 1.51
#
DISCID=9d0e620c
DTITLE=George Wesley - When I'm Next To You I Feel Lucky
DYEAR=2005
DGENRE=Reggae Rock
TTITLE0=When I'm Next To You I Feel Lucky
TTITLE1=Take It Easy
TTITLE2=Lets Have A Good TIme
TTITLE3=I Wanna Be A Cowboy
TTITLE4=Picture Frame Blues
TTITLE5=Dream On
TTITLE6=Earth Crisis
TTITLE7=Sitting Watching
TTITLE8=I Love You
TTITLE9=I Feel Lucky (Dub)
TTITLE10=The Lullaby
TTITLE11=Validation
EXTD=YEAR: 2005
EXTT0=
EXTT1=
EXTT2=
EXTT3=
EXTT4=
EXTT5=
EXTT6=
EXTT7=
EXTT8=
EXTT9=
EXTT10=
EXTT11=
PLAYORDER=
